<svg width="32" height="32" viewBox="0 0 32 32" fill="none" xmlns="http://www.w3.org/2000/svg">
<path d="M7 8.5C7 7.04131 7.57946 5.64236 8.61091 4.61091C9.64236 3.57946 11.0413 3 12.5 3C13.9587 3 15.3576 3.57946 16.3891 4.61091C17.4205 5.64236 18 7.04131 18 8.5C18 9.95869 17.4205 11.3576 16.3891 12.3891C15.3576 13.4205 13.9587 14 12.5 14C11.0413 14 9.64236 13.4205 8.61091 12.3891C7.57946 11.3576 7 9.95869 7 8.5ZM3 25.5C3 22.9804 4.00089 20.5641 5.78249 18.7825C7.56408 17.0009 9.98044 16 12.5 16C15.0196 16 17.4359 17.0009 19.2175 18.7825C20.9991 20.5641 22 22.9804 22 25.5V25.504L21.9987 25.6627C21.9958 25.8322 21.9499 25.9983 21.8653 26.1452C21.7806 26.2922 21.66 26.4152 21.5147 26.5027C18.7936 28.1413 15.6764 29.0049 12.5 29C9.204 29 6.11867 28.088 3.48667 26.5027C3.34113 26.4153 3.22022 26.2924 3.13532 26.1455C3.05041 25.9985 3.0043 25.8324 3.00133 25.6627L3 25.5ZM25 10C25 9.73478 24.8946 9.48043 24.7071 9.29289C24.5196 9.10536 24.2652 9 24 9C23.7348 9 23.4804 9.10536 23.2929 9.29289C23.1054 9.48043 23 9.73478 23 10V13H20C19.7348 13 19.4804 13.1054 19.2929 13.2929C19.1054 13.4804 19 13.7348 19 14C19 14.2652 19.1054 14.5196 19.2929 14.7071C19.4804 14.8946 19.7348 15 20 15H23V18C23 18.2652 23.1054 18.5196 23.2929 18.7071C23.4804 18.8946 23.7348 19 24 19C24.2652 19 24.5196 18.8946 24.7071 18.7071C24.8946 18.5196 25 18.2652 25 18V15H28C28.2652 15 28.5196 14.8946 28.7071 14.7071C28.8946 14.5196 29 14.2652 29 14C29 13.7348 28.8946 13.4804 28.7071 13.2929C28.5196 13.1054 28.2652 13 28 13H25V10Z" fill="#F26921"/>
</svg>
