<svg width="42" height="42" viewBox="0 0 42 42" fill="none" xmlns="http://www.w3.org/2000/svg">
<path d="M38.0625 9.1875H31.5C29.6606 9.1875 27.8277 9.67512 26.25 10.5383V6.5625C26.25 4.39124 24.4838 2.625 22.3125 2.625H6.5625C4.39124 2.625 2.625 4.39124 2.625 6.5625V35.4375C2.625 37.6088 4.39124 39.375 6.5625 39.375H22.3125C24.4838 39.375 26.25 37.6088 26.25 35.4375V34.7102C27.6292 33.5339 29.5888 32.8125 31.5 32.8125H38.0625C38.788 32.8125 39.375 32.2255 39.375 31.5V10.5C39.375 9.77454 38.788 9.1875 38.0625 9.1875ZM22.3125 36.75H6.5625C5.83832 36.75 5.25 36.1617 5.25 35.4375V6.5625C5.25 5.83832 5.83832 5.25 6.5625 5.25H11.8125C11.8125 6.69708 12.9904 7.875 14.4375 7.875C15.8846 7.875 17.0625 6.69708 17.0625 5.25H22.3125C23.0367 5.25 23.625 5.83832 23.625 6.5625V10.5382C22.0474 9.67504 20.2143 9.1875 18.375 9.1875H11.8125C11.087 9.1875 10.5 9.77454 10.5 10.5V31.5C10.5 32.2255 11.087 32.8125 11.8125 32.8125H18.375C20.2862 32.8125 22.2458 33.5339 23.625 34.7102V35.4375C23.625 36.1617 23.0367 36.75 22.3125 36.75ZM36.75 30.1875H31.5C29.1237 30.1875 26.7524 30.9937 24.9375 32.3844C23.1226 30.9937 20.7513 30.1875 18.375 30.1875H13.125V11.8125H18.375C20.4681 11.8125 22.6278 12.6713 24.0095 14.053C24.5222 14.5657 25.3528 14.5657 25.8655 14.053C27.2472 12.6713 29.4069 11.8125 31.5 11.8125H36.75V30.1875Z" fill="#F26921"/>
<path d="M34.125 19.6875H31.5C30.2747 19.6875 27.8701 20.1476 26.6345 21.3845C26.1218 21.8972 26.1218 22.7278 26.6345 23.2405C26.8909 23.4968 27.2267 23.625 27.5625 23.625C27.8983 23.625 28.2341 23.4968 28.4905 23.2405C28.9673 22.7637 30.4297 22.3125 31.5 22.3125H34.125C34.8505 22.3125 35.4375 21.7255 35.4375 21C35.4375 20.2745 34.8505 19.6875 34.125 19.6875Z" fill="#F26921"/>
<path d="M34.125 24.9375H31.5C30.2747 24.9375 27.8701 25.3976 26.6345 26.6345C26.1218 27.1472 26.1218 27.9778 26.6345 28.4905C26.8909 28.7468 27.2267 28.875 27.5625 28.875C27.8983 28.875 28.2341 28.7468 28.4905 28.4905C28.9673 28.0137 30.4297 27.5625 31.5 27.5625H34.125C34.8505 27.5625 35.4375 26.9755 35.4375 26.25C35.4375 25.5245 34.8505 24.9375 34.125 24.9375Z" fill="#F26921"/>
<path d="M18.375 19.6875H15.75C15.0245 19.6875 14.4375 20.2745 14.4375 21C14.4375 21.7255 15.0245 22.3125 15.75 22.3125H18.375C19.4453 22.3125 20.9077 22.7637 21.3845 23.2405C21.6409 23.4968 21.9767 23.625 22.3125 23.625C22.6483 23.625 22.9841 23.4968 23.2405 23.2405C23.7532 22.7278 23.7532 21.8972 23.2405 21.3845C22.0049 20.1476 19.6003 19.6875 18.375 19.6875Z" fill="#F26921"/>
<path d="M26.6345 16.1345C26.1218 16.6472 26.1218 17.4778 26.6345 17.9905C26.8909 18.2468 27.2267 18.375 27.5625 18.375C27.8983 18.375 28.2341 18.2468 28.4905 17.9905C28.9673 17.5137 30.4297 17.0625 31.5 17.0625H34.125C34.8505 17.0625 35.4375 16.4755 35.4375 15.75C35.4375 15.0245 34.8505 14.4375 34.125 14.4375H31.5C30.2747 14.4375 27.8701 14.8976 26.6345 16.1345Z" fill="#F26921"/>
<path d="M18.375 14.4375H15.75C15.0245 14.4375 14.4375 15.0245 14.4375 15.75C14.4375 16.4755 15.0245 17.0625 15.75 17.0625H18.375C19.4453 17.0625 20.9077 17.5137 21.3845 17.9905C21.6409 18.2468 21.9767 18.375 22.3125 18.375C22.6483 18.375 22.9841 18.2468 23.2405 17.9905C23.7532 17.4778 23.7532 16.6472 23.2405 16.1345C22.0049 14.8976 19.6003 14.4375 18.375 14.4375Z" fill="#F26921"/>
<path d="M18.375 24.9375H15.75C15.0245 24.9375 14.4375 25.5245 14.4375 26.25C14.4375 26.9755 15.0245 27.5625 15.75 27.5625H18.375C19.4453 27.5625 20.9077 28.0137 21.3845 28.4905C21.6409 28.7468 21.9767 28.875 22.3125 28.875C22.6483 28.875 22.9841 28.7468 23.2405 28.4905C23.7532 27.9778 23.7532 27.1472 23.2405 26.6345C22.0049 25.3976 19.6003 24.9375 18.375 24.9375Z" fill="#F26921"/>
</svg>
