<svg width="42" height="42" viewBox="0 0 42 42" fill="none" xmlns="http://www.w3.org/2000/svg">
<path d="M31.805 15.9042L23.1162 18.0915C22.8249 18.165 22.6201 18.4268 22.6201 18.728V22.55C22.6201 22.7522 22.714 22.9431 22.8728 23.0678C22.9896 23.159 23.132 23.2063 23.2764 23.2063C23.3295 23.2063 23.3833 23.1997 23.4365 23.1866L32.1252 20.9993C32.4166 20.9258 32.6214 20.664 32.6214 20.3628V16.5408C32.6214 16.3386 32.5275 16.1477 32.3687 16.023C32.2086 15.8983 32.0019 15.8537 31.805 15.9042ZM31.3089 19.8515L23.9326 21.7087V19.2399L31.3089 17.3827V19.8515Z" fill="#F26921"/>
<path d="M27.9181 4.8609C27.9142 4.77034 27.8971 4.68175 27.8584 4.60169C27.8571 4.59906 27.8544 4.59709 27.8531 4.59381C27.8157 4.519 27.7599 4.45534 27.6956 4.39956C27.6858 4.39103 27.6818 4.3779 27.672 4.37003C27.6635 4.36347 27.6523 4.36281 27.6431 4.3569C27.6293 4.34706 27.6188 4.33394 27.6037 4.32475L22.1083 1.06581C21.9593 0.977217 21.7815 0.951623 21.6135 0.994279L6.79012 4.72244C5.71453 4.9915 5.02612 6.03428 5.16656 7.12431C5.16656 7.12628 5.16525 7.12759 5.16525 7.12956V30.1784C5.16525 30.2164 5.16853 30.2545 5.17509 30.2919C5.28534 30.916 5.65284 31.441 6.20803 31.7704L6.89316 32.178C7.5015 32.5461 8.18203 32.7784 8.88947 32.8683V33.3402C8.86453 33.5252 8.86453 33.7116 8.88947 33.8967V33.9026C8.88947 33.9407 8.89275 33.9787 8.89931 34.0161C8.89997 34.0207 8.90259 34.0247 8.90325 34.0292V34.0358C8.90391 34.0397 8.90653 34.043 8.90784 34.047C9.02466 34.6566 9.38559 35.1705 9.93159 35.4947L10.62 35.9048C11.2257 36.2664 11.9017 36.4967 12.6025 36.5893V37.0467C12.5763 37.2363 12.5763 37.4273 12.6025 37.617C12.6025 37.655 12.6058 37.6924 12.6124 37.7298C12.6124 37.7331 12.6143 37.7364 12.615 37.7397C12.615 37.743 12.615 37.7456 12.6157 37.7489C12.617 37.7548 12.6209 37.7594 12.6222 37.7653C12.7403 38.3736 13.1006 38.8855 13.6447 39.2084L14.3331 39.6179C15.1442 40.1028 16.0557 40.3516 16.9843 40.3516C17.4096 40.3516 17.8401 40.2991 18.2653 40.1934L19.4026 39.9033L34.8645 36.0105C35.1559 35.937 35.3606 35.6745 35.3606 35.3739V12.3244C35.3606 12.3133 35.3541 12.3034 35.3534 12.2916C35.3488 12.203 35.3331 12.1171 35.295 12.0383C35.293 12.035 35.2904 12.0324 35.2884 12.0285C35.2504 11.9537 35.1952 11.89 35.1309 11.8342C35.1217 11.8263 35.1178 11.8139 35.1086 11.8067C35.1007 11.8007 35.0902 11.8001 35.0817 11.7942C35.0666 11.7837 35.0555 11.7692 35.0391 11.7594L31.6482 9.74865V8.61072C31.6482 8.59956 31.6417 8.58972 31.641 8.5779C31.6364 8.48931 31.6207 8.40334 31.5826 8.32525C31.5806 8.32131 31.578 8.31869 31.576 8.3154C31.5386 8.24125 31.4835 8.17759 31.4192 8.12181C31.41 8.11394 31.4061 8.10147 31.3962 8.09359C31.3877 8.08703 31.3772 8.08637 31.3687 8.08047C31.3542 8.06997 31.3431 8.05619 31.3273 8.04634L27.9247 6.02837V4.8865C27.9247 4.87731 27.9187 4.86878 27.9181 4.85959V4.8609ZM7.10972 5.99622L21.6719 2.33237L25.5635 4.6404L12.1589 8.02009L11.5447 8.17497L10.5052 8.43484C9.51684 8.68487 8.44584 8.53 7.56844 8.00959L6.88331 7.60206C6.83212 7.57122 6.79406 7.53644 6.75403 7.50231C6.57028 7.34284 6.49416 7.15712 6.46856 7.01144C6.39506 6.61506 6.59391 6.12484 7.10972 5.99622ZM6.87741 30.6423C6.61884 30.4894 6.51647 30.2788 6.47775 30.1134V8.88831L6.89972 9.139C6.91416 9.14753 6.92925 9.15278 6.94369 9.16131C7.10381 9.25384 7.26853 9.33653 7.43719 9.41134C7.51856 9.44744 7.60059 9.47959 7.68328 9.51109C7.78172 9.5485 7.88081 9.58328 7.98056 9.61478C8.08491 9.64825 8.18925 9.68172 8.29556 9.70862C8.34609 9.72109 8.39728 9.72897 8.44847 9.73947C8.62762 9.77884 8.80744 9.81231 8.98987 9.832C8.87831 10.1509 8.84091 10.5001 8.89012 10.859V31.5368C8.42353 31.4567 7.97466 31.2973 7.56909 31.0518L6.87806 30.641L6.87741 30.6423ZM11.292 34.7774L10.6016 34.3666C10.3444 34.2137 10.242 34.0043 10.2026 33.8396V33.3343C10.2026 33.3343 10.2026 33.3323 10.2026 33.331V12.6119L10.6226 12.8619C10.8057 12.9708 10.9954 13.0634 11.187 13.148C11.2408 13.1717 11.2946 13.1927 11.3491 13.2143C11.5 13.2747 11.6523 13.3278 11.8072 13.3738C11.857 13.3882 11.9056 13.4053 11.9555 13.4184C12.1556 13.4716 12.3584 13.5142 12.5632 13.5424C12.5927 13.5464 12.6229 13.5477 12.6524 13.551C12.6682 13.5529 12.6839 13.5536 12.7003 13.5556C12.5914 13.8725 12.5553 14.2177 12.6038 14.5734V35.2564C12.1412 35.1744 11.6962 35.0169 11.2933 34.7761L11.292 34.7774ZM17.9451 38.9203C16.9351 39.171 15.8903 39.0187 15.0057 38.4898L14.3147 38.079C14.0561 37.9261 13.9544 37.7154 13.9157 37.5507V16.3249L14.3357 16.575C14.5168 16.6819 14.7058 16.7738 14.8974 16.8578C14.9519 16.8814 15.007 16.9031 15.0622 16.9247C15.2131 16.9845 15.3667 17.0376 15.5222 17.0829C15.5721 17.0973 15.6206 17.1137 15.6705 17.1269C15.8726 17.1794 16.0774 17.222 16.2841 17.2502C16.3156 17.2548 16.3471 17.2555 16.3786 17.2594C16.5571 17.2804 16.7356 17.2922 16.9154 17.2949C16.9436 17.2949 16.9718 17.3008 17.0001 17.3008C17.0316 17.3008 17.0631 17.2955 17.0946 17.2949C17.2363 17.2922 17.3774 17.2831 17.5185 17.2686C17.5743 17.2634 17.6301 17.2594 17.6858 17.2522C17.8794 17.2266 18.0724 17.1925 18.2627 17.1439L18.5849 17.0632V38.7569L17.9451 38.9203ZM19.8974 38.4255V16.7344L32.1752 13.6389L34.0494 13.1664V34.862L19.8981 38.4248L19.8974 38.4255ZM17.9424 15.8721C16.9567 16.1222 15.8851 15.9679 15.0057 15.4469L14.3206 15.0393C14.0325 14.8648 13.9354 14.6246 13.9045 14.4474C13.831 14.0523 14.0292 13.5647 14.5411 13.4342C14.5444 13.4335 14.547 13.4328 14.5503 13.4322L15.6698 13.15C15.6764 13.1487 15.683 13.1493 15.6902 13.1474L21.3451 11.7213L29.1085 9.76834L30.488 10.5867C30.5838 10.7068 30.7177 10.7862 30.8752 10.8164L33.0021 12.0777L17.9424 15.8721ZM27.1168 8.91062C27.1168 8.91062 27.1109 8.91062 27.1083 8.91062L16.6798 11.5409L14.2261 12.1577C14.2261 12.1577 14.2202 12.1604 14.2169 12.161C13.2338 12.4065 12.1681 12.2516 11.2927 11.7332L10.6082 11.3256C10.3194 11.1504 10.2223 10.9109 10.1915 10.7343C10.1186 10.338 10.3175 9.84709 10.8326 9.71847L25.3955 6.05528L29.2877 8.36331L27.1168 8.91062Z" fill="#F26921"/>
<path d="M31.8051 29.0857L23.1163 31.2729C22.7653 31.3615 22.552 31.7179 22.6399 32.0696C22.7147 32.3676 22.9818 32.5658 23.2758 32.5658C23.329 32.5658 23.3828 32.5592 23.4366 32.5461L32.1253 30.3588C32.4764 30.2702 32.6897 29.9138 32.6018 29.5621C32.5139 29.2103 32.1555 28.9984 31.8051 29.0857Z" fill="#F26921"/>
<path d="M31.8051 31.7376L23.1163 33.9249C22.7653 34.0134 22.552 34.3698 22.6399 34.7215C22.7147 35.0195 22.9818 35.2177 23.2758 35.2177C23.329 35.2177 23.3828 35.2111 23.4366 35.198L32.1253 33.0107C32.4764 32.9221 32.6897 32.5658 32.6018 32.214C32.5139 31.8623 32.1555 31.6516 31.8051 31.7376Z" fill="#F26921"/>
</svg>
