<svg width="24" height="24" viewBox="0 0 24 24" fill="none" xmlns="http://www.w3.org/2000/svg">
<path d="M6.293 12.707C6.11084 12.5184 6.01005 12.2658 6.01233 12.0036C6.0146 11.7414 6.11977 11.4906 6.30518 11.3052C6.49059 11.1198 6.7414 11.0146 7.0036 11.0123C7.2658 11.01 7.5184 11.1108 7.707 11.293L11 14.586V3C11 2.73478 11.1054 2.48043 11.2929 2.29289C11.4804 2.10536 11.7348 2 12 2C12.2652 2 12.5196 2.10536 12.7071 2.29289C12.8946 2.48043 13 2.73478 13 3V14.586L16.293 11.293C16.4816 11.1108 16.7342 11.01 16.9964 11.0123C17.2586 11.0146 17.5094 11.1198 17.6948 11.3052C17.8802 11.4906 17.9854 11.7414 17.9877 12.0036C17.99 12.2658 17.8892 12.5184 17.707 12.707L12.707 17.707C12.6141 17.8001 12.5038 17.874 12.3823 17.9244C12.2608 17.9748 12.1305 18.0008 11.999 18.0008C11.8675 18.0008 11.7372 17.9748 11.6157 17.9244C11.4942 17.874 11.3839 17.8001 11.291 17.707L6.293 12.707ZM18 20H6C5.73478 20 5.48043 20.1054 5.29289 20.2929C5.10536 20.4804 5 20.7348 5 21C5 21.2652 5.10536 21.5196 5.29289 21.7071C5.48043 21.8946 5.73478 22 6 22H18C18.2652 22 18.5196 21.8946 18.7071 21.7071C18.8946 21.5196 19 21.2652 19 21C19 20.7348 18.8946 20.4804 18.7071 20.2929C18.5196 20.1054 18.2652 20 18 20Z" fill="white"/>
</svg>
