<svg width="178" height="69" viewBox="0 0 178 69" fill="none" xmlns="http://www.w3.org/2000/svg">
<path d="M80.3015 34.7352C83.7421 42.6718 86.296 44.1296 88.2113 45.0366C87.6084 46.462 85.6929 47.0451 83.9903 47.0451C82.0749 47.0451 81.0463 46.1381 79.9112 44.2268C78.6343 42.0887 76.7543 38.0718 75.5839 35.0267C75.2292 34.9943 74.8035 34.9296 74.4133 34.7676C73.4556 38.8817 72.356 42.6071 72.356 44.2592C72.356 45.1986 72.5334 45.6845 72.5334 46.1381C72.5334 46.6888 68.88 46.9479 68.738 46.9479C67.5676 46.9479 67 46.5592 67 45.5226C67.0355 45.1662 67.0355 44.7775 67.1419 44.324C68.4543 38.9789 70.1568 33.2127 71.1145 28.9042C71.4338 27.5113 71.6465 26.3774 71.6465 25.5676C71.6465 24.5958 71.15 24.2718 70.476 23.8831C71.2209 21.8746 75.1936 21 79.6629 21C85.0188 21 88.495 22.6845 88.495 26.4747C88.4951 30.5239 85.1964 33.4394 80.3015 34.7352ZM74.9809 32.4028C74.9809 33.0507 75.7967 33.0831 76.3288 33.0831C80.5497 33.0831 83.3165 30.8479 83.3165 27.1873C83.3165 24.8225 81.7203 23.6563 78.9182 23.6563C76.4707 23.6563 76.1869 24.045 76.1869 24.9197C76.5416 24.9845 76.6125 25.2112 76.6125 25.438C76.6125 25.5675 76.6125 25.6647 76.5771 25.7619C76.1869 27.6732 75.513 29.7788 75.0874 31.852C75.0518 32.0464 74.9809 32.2408 74.9809 32.4028Z" fill="white"/>
<path d="M102.825 41.4084C103.322 42.2182 103.251 43.2225 102.612 43.9676C102.009 44.6478 101.122 45.2634 99.9519 45.7168C98.1784 46.4619 96.3339 46.8182 94.3476 46.8182C90.1976 46.8182 87.8211 45.1661 87.6437 41.8295C87.4664 38.4929 88.7433 35.221 91.1908 32.7915C93.5673 30.2 96.6178 28.807 99.7746 28.807C102.754 28.807 104.173 29.9732 104.137 32.176C104.137 34.3788 101.016 37.1972 96.2275 38.7521C95.0925 39.1084 92.7869 40.0479 92.7515 40.8902C92.716 41.6676 92.8224 42.3479 93.1416 42.7691C93.922 43.8057 95.1989 44.4212 96.5468 44.2592C99.0652 44.0324 100.981 43.0282 102.825 41.4084ZM93.1062 38.6873C93.7092 37.4887 94.7733 37.0676 96.0857 36.4197C98.3558 35.2859 98.9943 34.2169 99.349 33.083C99.7037 31.9492 99.278 30.9774 98.0011 30.9774C96.0857 30.9774 94.4895 33.2126 93.4609 37.2295C93.4609 37.2295 93.319 37.7802 93.1062 38.6873Z" fill="white"/>
<path d="M118.893 42.3479C118.893 45.1338 113.182 46.8183 110.167 46.8183C105.946 46.8183 103.782 45.0042 103.782 41.3436C103.782 34.8971 109.316 28.807 115.878 28.807C118.928 28.807 120.347 29.4873 120.347 30.8478C120.347 32.0788 118.928 33.0506 117.013 33.6013C116.552 31.7224 115.913 31.0746 114.494 31.0746C111.515 31.0746 109.28 34.6056 109.28 40.469C109.28 42.445 110.061 44.1295 111.976 44.1295C114.494 44.1295 116.977 42.9957 118.609 41.2465C118.822 41.6028 118.893 41.9592 118.893 42.3479Z" fill="white"/>
<path d="M126.837 42.1535C128.398 40.5986 129.178 40.1775 129.178 40.8254C129.178 41.1494 129.001 41.7324 128.611 42.5747C127.618 44.6803 124.745 46.6888 122.9 46.6888C121.02 46.6888 119.885 45.717 119.743 43.7085C119.672 42.9958 119.743 40.9226 120.453 38.4929C121.056 36.5493 121.375 34.638 121.623 33.4394C121.765 32.7915 121.801 32.176 121.801 31.6901C121.801 31.0745 121.623 30.5563 121.269 30.0704C122.51 29.6493 123.716 29.3901 124.816 29.3901C125.419 29.3901 126.163 29.4873 126.589 29.9084C127.015 30.3295 127.157 30.8802 127.015 31.5929C126.908 32.1112 126.802 32.6296 126.625 33.2126C126.093 35.0267 125.454 37.0675 125.241 37.9746C124.957 39.1084 124.709 40.9549 124.709 41.8943C124.709 42.5422 124.745 43.2873 125.099 43.2873C125.525 43.2873 126.128 42.7691 126.837 42.1535ZM128.54 21.0972C126.837 21.0972 125.17 21.3887 123.716 21.907C123.787 22.069 123.893 22.1986 123.893 22.3606C123.929 23.6564 123.326 25.5028 123.326 26.4423C123.326 26.9606 123.716 27.6408 125.206 27.3493C127.263 26.9606 127.228 26.993 128.788 24.7901C129.71 23.4943 130.03 22.9436 130.207 22.3281C130.242 22.1662 130.242 22.069 130.242 21.9394C130.207 21.4535 129.64 21.0972 128.54 21.0972Z" fill="white"/>
<path d="M148.155 33.3747C148.155 39.6592 142.799 46.5916 136.698 46.5916C135.563 46.5916 134.392 46.3972 133.364 45.9761C132.973 47.3691 132.583 49.086 132.583 50.4789C132.583 50.9972 132.761 51.5479 132.938 52.0986C131.661 52.6818 130.455 52.9085 129.604 52.9085C128.15 52.9085 127.476 52.2606 127.476 51.0944C127.476 50.6409 127.547 50.0902 127.688 49.507C127.937 48.6 130.845 37.2619 131.271 35.5775C131.732 33.7634 132.016 32.3704 132.016 30.9775C132.016 30.4592 131.909 29.9408 131.661 29.4549C133.08 28.8718 134.286 28.6127 135.314 28.6127C136.627 28.6127 137.336 29.0986 137.336 30.1028C137.336 30.6859 136.875 32.5972 136.13 35.1888C138.188 32.176 140.99 28.9366 144.395 28.9366C144.679 28.9366 144.962 28.969 145.282 29.0014C147.339 29.2605 148.155 31.431 148.155 33.3747ZM142.941 34.3465C142.941 33.0831 142.621 32.3704 141.841 32.3704C139.997 32.3704 135.563 38.9465 134.18 42.5099C134.392 43.4169 135.847 44.0649 137.053 44.0649C140.068 44.0649 142.692 39.0761 142.941 34.7353C142.941 34.6056 142.941 34.4761 142.941 34.3465Z" fill="white"/>
<path d="M163.3 41.4084C163.797 42.2182 163.726 43.2225 163.087 43.9676C162.484 44.6478 161.598 45.2634 160.427 45.7168C158.653 46.4619 156.809 46.8182 154.823 46.8182C150.673 46.8182 148.296 45.1661 148.119 41.8295C147.941 38.4929 149.218 35.221 151.666 32.7915C154.042 30.2 157.093 28.807 160.25 28.807C163.229 28.807 164.648 29.9732 164.613 32.176C164.613 34.3788 161.491 37.1972 156.703 38.7521C155.568 39.1084 153.262 40.0479 153.227 40.8902C153.191 41.6676 153.297 42.3479 153.617 42.7691C154.397 43.8057 155.674 44.4212 157.022 44.2592C159.54 44.0324 161.456 43.0282 163.3 41.4084ZM153.581 38.6873C154.184 37.4887 155.248 37.0676 156.561 36.4197C158.831 35.2859 159.469 34.2169 159.824 33.083C160.179 31.9492 159.753 30.9774 158.476 30.9774C156.561 30.9774 154.965 33.2126 153.936 37.2295C153.936 37.2295 153.794 37.7802 153.581 38.6873Z" fill="white"/>
<path d="M172.274 32.3705C172.274 33.0183 172.629 33.6014 173.196 34.2494C174.721 35.9339 176.282 37.4564 176.282 39.8212C176.282 43.7085 172.38 46.7212 168.088 46.7212C165.641 46.7212 162.839 45.2635 162.839 42.7368C162.839 41.6354 163.619 40.9551 164.258 40.6311C165.073 42.6396 166.457 44.4213 168.585 44.5184C170.252 44.5184 171.316 43.6762 171.316 41.9269C171.316 40.4044 169.827 39.3354 168.479 37.9424C167.556 36.9382 167.06 35.6748 167.06 34.4114C167.06 30.2325 171.671 28.4185 175.75 28.4185C177.027 28.4185 177.559 28.6452 177.772 29.3903C177.772 30.0381 177.453 30.6213 176.388 31.3015C175.679 30.6537 174.97 30.3621 174.331 30.3621C172.912 30.362 172.274 31.1071 172.274 32.3705Z" fill="white"/>
<path fill-rule="evenodd" clip-rule="evenodd" d="M21.827 43.0393C21.6242 43.0132 21.4186 42.9985 21.2212 42.9514C18.9581 42.4117 17.0999 40.5717 16.112 38.0215C13.1555 30.353 12.4803 28.6004 14.8252 27.2531L18.5496 36.3182C18.6339 36.5381 18.799 36.7174 19.0021 36.8082C19.1893 36.8916 19.3905 36.8996 19.5736 36.8303L19.825 36.7327C20.0096 36.6621 20.1534 36.523 20.2364 36.3367C20.3267 36.1332 20.3309 35.8914 20.2563 35.7059L17.4061 26.1298C17.7355 26.0072 18.0722 25.8794 18.4406 25.7377C18.6547 25.6558 18.8473 25.5789 19.0481 25.5053L23.3586 34.4757C23.4436 34.6972 23.61 34.8724 23.8161 34.9693C23.9988 35.0503 24.2009 35.0532 24.3849 34.9827L24.6361 34.8867C24.8193 34.8218 24.9662 34.6837 25.0493 34.4967C25.1421 34.2889 25.1429 34.0462 25.0578 33.8363L21.709 24.5719C24.5832 23.8285 25.3591 25.3558 28.4244 33.3068C29.332 35.6491 29.284 38.0439 28.2479 39.9029C28.1523 40.0736 28.0278 40.2285 27.9154 40.3902C31.4029 48.1365 34.5444 53.4924 40.5958 57.4015C42.1589 58.4114 43.5196 58.5084 44.4332 57.9553V7.61515C44.4332 7.61515 14.9943 16.328 10.1107 16.6019C5.22735 16.8766 1.37555 13.3778 1.37555 13.3778L27.6499 1.64645L27.7187 0L0 12.2481V65.3107C1.44444 70.7991 10.7054 68.539 10.7054 68.539C34.7908 62.1019 29.5723 63.497 37.9299 61.2632C31.2143 57.8403 25.5939 50.9049 21.827 43.0393Z" fill="url(#paint0_linear_23_112)"/>
<path fill-rule="evenodd" clip-rule="evenodd" d="M9.42765 68.7778C8.66674 68.8928 7.63512 69.005 6.52979 68.999L7.61069 20.2026L9.42765 68.7778Z" fill="#BA4F16"/>
<path fill-rule="evenodd" clip-rule="evenodd" d="M38.3267 33.1839C38.8848 32.5716 39.8352 32.5282 40.4498 33.0868C41.0637 33.6449 41.1088 34.5933 40.5507 35.2058C39.9926 35.8175 39.0414 35.8605 38.4282 35.3027C37.8139 34.7443 37.7685 33.7957 38.3267 33.1839Z" fill="white"/>
<path fill-rule="evenodd" clip-rule="evenodd" d="M30.8205 28.0691C31.5476 27.2721 32.7852 27.2156 33.5842 27.9423C34.3844 28.6694 34.443 29.9046 33.7163 30.7017C32.9892 31.4986 31.7516 31.555 30.952 30.8281C30.1524 30.1016 30.0934 28.8664 30.8205 28.0691Z" fill="white"/>
<path fill-rule="evenodd" clip-rule="evenodd" d="M34.3822 38.4188C35.4338 37.2664 37.2235 37.1844 38.38 38.236C39.5366 39.287 39.6213 41.0736 38.5698 42.2255C37.5186 43.3778 35.7293 43.4601 34.5732 42.4087C33.4165 41.3575 33.331 39.5711 34.3822 38.4188Z" fill="white"/>
<path fill-rule="evenodd" clip-rule="evenodd" d="M21.2402 50.746L23.8598 47.9012C31.2671 59.9038 51.2046 73.2076 49.5302 51.2396C55.1821 75.22 31.8882 66.748 21.2402 50.746Z" fill="url(#paint1_linear_23_112)"/>
<path fill-rule="evenodd" clip-rule="evenodd" d="M34.8752 7.31447L22.7753 10.309L32.6398 6.93546C31.5116 6.6766 30.4755 6.31842 29.7 5.81082L14.431 10.3091L28.6829 4.78475C28.3178 4.20462 28.1725 3.51947 28.407 2.67566L4.06934 13.5191C4.06934 13.5191 6.07519 14.8629 8.00286 15.3947C9.20342 15.7264 10.527 15.7028 11.7218 15.4329L41.1317 7.51211C41.1317 7.51211 38.0301 7.69033 34.8752 7.31447Z" fill="white"/>
<defs>
<linearGradient id="paint0_linear_23_112" x1="-28.5779" y1="45.4879" x2="44.9041" y2="28.2386" gradientUnits="userSpaceOnUse">
<stop stop-color="#E5AAAC"/>
<stop offset="1" stop-color="#F7941D"/>
</linearGradient>
<linearGradient id="paint1_linear_23_112" x1="-22.7303" y1="70.3992" x2="50.7517" y2="53.15" gradientUnits="userSpaceOnUse">
<stop stop-color="#ED1C24"/>
<stop offset="1" stop-color="#F7941D"/>
</linearGradient>
</defs>
</svg>
