<svg width="42" height="42" viewBox="0 0 42 42" fill="none" xmlns="http://www.w3.org/2000/svg">
<g clip-path="url(#clip0_21_1233)">
<path d="M17.8008 29.9414C18.2536 29.9414 18.6211 29.5739 18.6211 29.1211C18.6211 28.6683 18.2536 28.3008 17.8008 28.3008C17.348 28.3008 16.9805 28.6683 16.9805 29.1211C16.9805 29.5739 17.348 29.9414 17.8008 29.9414Z" fill="#F26921"/>
<path d="M0.322358 31.8339L10.1661 41.6777C10.4866 41.9981 11.0057 41.9981 11.3261 41.6777L16.7402 36.2636C17.0606 35.9432 17.0606 35.4241 16.7402 35.1037L16.4998 34.8633H28.3245C29.3631 34.8633 30.3542 34.474 31.1184 33.7646L41.0702 24.4377C42.0228 23.5529 42.3384 22.1475 41.8552 20.9407C41.5059 20.0672 40.7927 19.3988 39.8986 19.1069C39.0043 18.8143 38.0344 18.9329 37.2365 19.4315C37.2313 19.4347 35.0271 20.8811 35.0271 20.8811C35.012 16.4345 32.3245 11.6927 28.6251 9.55793C28.8363 9.31537 29.0023 9.02826 29.108 8.70686C29.5313 7.41903 28.8276 6.02514 27.5379 5.59928C27.4975 5.58582 27.4571 5.57397 27.4167 5.56147L29.5284 1.76816C29.6499 1.54994 29.6656 1.28815 29.5704 1.05744C29.4755 0.826402 29.2807 0.651124 29.0407 0.58159C27.5266 0.141312 25.953 -0.0820312 24.3633 -0.0820312C22.774 -0.0820312 21.2 0.141312 19.6859 0.581269C19.4459 0.651124 19.2511 0.826081 19.1559 1.05712C19.0611 1.28815 19.0765 1.54994 19.1982 1.76816L21.3099 5.56147C21.2689 5.57429 21.2279 5.58646 21.1868 5.59992C19.899 6.02514 19.1957 7.41871 19.619 8.7075C19.7247 9.02826 19.892 9.3144 20.1038 9.55729C16.3492 11.7238 13.6992 16.5143 13.6992 20.918C13.6992 21.0382 13.7021 21.1567 13.706 21.2743C12.2368 21.6752 10.8708 22.4055 9.722 23.4113L7.22901 25.5925L6.8964 25.2599C6.57597 24.9395 6.05686 24.9395 5.73643 25.2599L0.322358 30.674C0.0019225 30.9944 0.0019225 31.5135 0.322358 31.8339ZM21.1503 1.90178C22.2013 1.67363 23.278 1.5586 24.3633 1.5586C25.4486 1.5586 26.5253 1.67363 27.5766 1.90178L25.7486 5.18528C24.827 5.05678 23.899 5.05678 22.9784 5.18528L21.1503 1.90178ZM21.6989 7.15852C23.3821 6.60769 25.2173 6.56603 27.0255 7.15788C27.4558 7.29983 27.6907 7.7651 27.5494 8.19448C27.443 8.5178 27.1546 8.7373 26.8204 8.75685C25.2029 8.24255 23.5228 8.24159 21.9059 8.75525C21.9059 8.75525 21.9059 8.75525 21.9056 8.75525C21.5685 8.7341 21.2823 8.51364 21.1772 8.1948C21.0359 7.76478 21.2708 7.29951 21.6989 7.15852ZM22.1526 10.4029C23.575 9.89055 25.0487 9.87837 26.4747 10.3683C30.2859 11.6789 33.3868 16.4114 33.3868 20.918C33.3868 21.3 33.3627 21.664 33.3153 22.0043L29.3724 24.5911C28.7619 23.8349 27.8368 23.3789 26.8243 23.3789H25.1836V22.4176C26.1385 22.0789 26.8243 21.167 26.8243 20.0977C26.8243 18.7406 25.7204 17.6367 24.3633 17.6367C23.9112 17.6367 23.543 17.2689 23.543 16.8164C23.543 16.364 23.9112 15.9961 24.3633 15.9961C24.6539 15.9961 24.9606 16.1445 25.2506 16.4249C25.5762 16.7398 26.0956 16.7312 26.4106 16.406C26.7256 16.0804 26.7169 15.561 26.3913 15.246C25.9751 14.8429 25.5585 14.615 25.1836 14.4907V13.5352C25.1836 13.0821 24.8164 12.7149 24.3633 12.7149C23.9102 12.7149 23.543 13.0821 23.543 13.5352V14.4965C22.5884 14.8352 21.9024 15.7471 21.9024 16.8164C21.9024 18.1735 23.0063 19.2774 24.3633 19.2774C24.8158 19.2774 25.1836 19.6452 25.1836 20.0977C25.1836 20.5501 24.8158 20.918 24.3633 20.918C24.0128 20.918 23.6346 20.6975 23.2982 20.2973C23.0066 19.9506 22.4891 19.9057 22.1424 20.1973C21.7957 20.4889 21.7508 21.0064 22.0424 21.3531C22.4808 21.8748 22.9967 22.2382 23.543 22.4215V23.3789H23.27C22.8669 23.3789 22.6858 23.1162 22.4019 22.9326C20.6687 21.6335 18.5218 20.918 16.3563 20.918C16.0176 20.918 15.6782 20.9356 15.3405 20.9699C15.3405 20.9526 15.3399 20.9356 15.3399 20.918C15.3399 16.4745 18.3962 11.7577 22.1526 10.4029ZM10.8025 24.6456C12.3438 23.2959 14.3244 22.5586 16.3563 22.5586C18.1693 22.5586 19.9666 23.1575 21.4169 24.2448C21.6262 24.3672 22.2087 25.0196 23.2697 25.0196H26.8243C27.758 25.0196 28.4649 25.7787 28.4649 26.6602C28.4649 27.5648 27.7288 28.3008 26.8243 28.3008H21.0821C20.629 28.3008 20.2617 28.668 20.2617 29.1211C20.2617 29.5742 20.629 29.9414 21.0821 29.9414H26.8243C28.6334 29.9414 30.1055 28.4694 30.1055 26.6602C30.1055 26.4721 30.0888 26.2866 30.0574 26.1039L38.1129 20.8187C38.4961 20.5819 38.9611 20.5264 39.3892 20.6661C39.8198 20.8071 40.1636 21.1292 40.3319 21.5502C40.5687 22.1411 40.42 22.8028 39.9509 23.2383L29.9994 32.5648C29.5425 32.9891 28.9478 33.2227 28.3245 33.2227H14.8592L8.39187 26.755L10.8025 24.6456ZM6.31641 26.9999L15.0002 35.6836L10.7461 39.9377L2.06232 31.2539L6.31641 26.9999Z" fill="#F26921"/>
</g>
<defs>
<clipPath id="clip0_21_1233">
<rect width="42" height="42" fill="white"/>
</clipPath>
</defs>
</svg>
